<svg width="16" height="22" viewBox="0 0 16 22" fill="none" xmlns="http://www.w3.org/2000/svg">
<path d="M8 0C5.1517 0 2.82353 2.29778 2.82353 5.13333V6.11111H0.643963C0.272446 6.11111 0 6.40444 0 6.74667V19.2378C0 20.7533 1.26316 22 2.79876 22H13.226C14.7616 22 16.0248 20.7533 16.0248 19.2378V6.74667C16.0248 6.38 15.7276 6.11111 15.3808 6.11111H13.226V5.13333C13.2012 2.29778 10.8731 0 8 0ZM8 1.29556C10.1548 1.29556 11.8638 2.98222 11.8638 5.13333V6.11111H4.13622V5.13333C4.13622 3.00667 5.8452 1.29556 8.02477 1.29556H8ZM1.31269 7.40667H2.82353V9.24C2.82353 9.60667 3.12074 9.9 3.46749 9.9C3.83901 9.9 4.11145 9.60667 4.11145 9.24V7.40667H11.8638V9.24C11.8638 9.60667 12.161 9.9 12.5077 9.9C12.8793 9.9 13.1517 9.60667 13.1517 9.24V7.40667H14.6625V19.2378C14.6625 20.0689 14.0186 20.7044 13.1765 20.7044H2.79876C1.95666 20.7044 1.31269 20.0689 1.31269 19.2378V7.40667Z" fill="white"/>
</svg>
