<svg width="96" height="29" viewBox="0 0 96 29" fill="none" xmlns="http://www.w3.org/2000/svg">
<path fill-rule="evenodd" clip-rule="evenodd" d="M68.1736 14.3202C68.1736 22.0339 62.8358 28.3101 54.3648 28.3101C46.068 28.3101 40.556 22.0136 40.556 14.3C40.556 6.58627 45.8552 0.310059 54.3648 0.310059C62.8938 0.310059 68.1736 6.60652 68.1736 14.3202ZM0.290101 0.85672H12.7064C23.3822 0.85672 27.5596 7.41638 27.5596 14.3607C27.5596 21.4265 22.2024 27.723 12.0102 27.723H0.309441C0.0967004 27.723 0.0193401 27.5813 0.0193401 27.4598C0.0193401 27.3181 0.154721 27.1966 0.348122 27.1966H2.53355C3.21045 27.1966 3.65528 26.7714 3.65528 25.9819V2.63836C3.65528 2.05123 3.38452 1.40336 2.49487 1.40336H0.270761C0.0967004 1.40336 0 1.28188 0 1.14016C0 1.01869 0.0386802 0.85672 0.290101 0.85672ZM8.04533 26.4677C8.04533 27.0548 8.29675 27.237 8.66421 27.237H11.952C20.0555 27.237 22.9952 20.7381 22.9952 14.2189C22.9952 7.69972 19.8815 1.38302 13.0351 1.38302H8.56751C8.10335 1.38302 8.06467 1.78793 8.06467 1.97015L8.04533 26.4677ZM28.4297 1.09967C28.4297 0.937704 28.6037 0.85672 28.7971 0.85672V0.876966H39.2795C39.5116 0.876966 39.6083 0.998441 39.6083 1.14016C39.6083 1.28188 39.5116 1.38311 39.3375 1.38311H37.3455C36.6106 1.38311 36.2044 1.82852 36.2044 2.49663V26.1033C36.2044 27.0346 36.9974 27.2169 37.2875 27.2169H39.3182C39.589 27.2169 39.6276 27.3788 39.6276 27.5408C39.6276 27.7028 39.4149 27.723 39.2602 27.723H28.7391C28.4655 27.723 28.4671 27.5969 28.4682 27.5147L28.4683 27.5003C28.4683 27.4193 28.4877 27.2169 28.7391 27.2169H30.9052C31.5241 27.2169 31.8722 26.488 31.8722 26.0021V2.73958C31.8722 1.72729 31.3887 1.36287 30.8859 1.36287H28.7004C28.5264 1.36287 28.4297 1.26164 28.4297 1.09967ZM45.2362 14.3C45.2362 6.86974 48.408 0.85672 54.3648 0.85672C60.2055 0.85672 63.4933 6.86974 63.4933 14.3C63.4933 21.7302 60.4956 27.7432 54.3648 27.7432C48.4274 27.7635 45.2362 21.7302 45.2362 14.3ZM95.2497 27.561C92.6872 27.8418 91.0085 24.5185 89.6034 21.7369C89.1845 20.9076 88.7897 20.1263 88.4033 19.5032C87.1462 17.4988 84.4773 15.454 81.847 15.0491C86.1792 14.7859 91.0335 13.3282 91.0335 8.18572C91.0335 4.01507 88.5774 0.85672 79.5649 0.85672H69.1793C69.0439 0.85672 68.9085 0.937704 68.9085 1.09967C68.9085 1.26164 69.0439 1.36287 69.1793 1.36287H71.5581C72.061 1.36287 72.5445 1.72729 72.5445 2.73958V26.0021C72.5445 26.488 72.1963 27.2169 71.5775 27.2169H69.2373C69.0439 27.2169 68.9666 27.3788 68.9666 27.4598C68.9666 27.5408 69.0439 27.723 69.2373 27.723H80.2611C80.4159 27.723 80.5512 27.642 80.5512 27.48C80.5512 27.3181 80.4545 27.2169 80.2418 27.2169H78.0177C77.7276 27.2169 76.9346 27.0144 76.9346 26.1033V15.1098H78.0757C81.8476 15.1098 83.2051 18.0731 84.5794 21.0728C85.1922 22.4105 85.8083 23.7554 86.6433 24.8481C88.9641 27.885 92.0005 28.2696 93.7218 28.2696C94.4567 28.2696 94.9596 28.2494 95.4237 28.1279C95.7138 28.0267 95.7718 27.5003 95.2497 27.561ZM79.6423 1.36287H78.0371C77.3022 1.36287 76.896 1.80827 76.896 2.49663V14.5834H79.2362C82.8914 14.5834 86.8367 12.903 86.8367 7.92252C86.8367 2.49663 82.3886 1.36287 79.6423 1.36287Z" fill="black"/>
</svg>
